<?xml version="1.0" encoding="UTF-8"?>
<!-- EUVD Vulnerabilities menu icon (grey/white, centered VD)
     Designed for WordPress admin menus.
     Generic shield icon – not an ENISA logo. -->
<svg xmlns="http://www.w3.org/2000/svg"
     viewBox="0 0 20 20"
     role="img"
     aria-label="EUVD">

  <!-- Shield (soft grey, adapts well on light/dark backgrounds) -->
  <path fill="#9aa0a6" d="
    M10 1.2
    L3 3.8
    v5.1
    c0 4.7 3.2 8.7 7 9.9
    c3.8-1.2 7-5.2 7-9.9
    V3.8
    L10 1.2
    Z
  "/>

  <!-- VD letters (white for contrast) -->
  <path fill="#ffffff" d="
    M6.9 7.0
    h1.25
    l1.35 4.1
    l1.35-4.1
    h1.25
    l-1.95 5.8
    H8.85
    L6.9 7.0
    Z

    M11.1 7.0
    h2.05
    c1.65 0 2.75 1.1 2.75 3.0
    s-1.1 3.0-2.75 3.0
    h-2.05
    V7.0
    Z

    M12.25 8.15
    v3.7
    h0.8
    c1.0 0 1.6-0.65 1.6-1.85
    s-0.6-1.85-1.6-1.85
    h-0.8
    Z
  "/>

</svg>